<svg width="30" height="24" viewBox="0 0 30 24" fill="none" xmlns="http://www.w3.org/2000/svg">
<path fill-rule="evenodd" clip-rule="evenodd" d="M5.46257 0.316895C2.44567 0.316895 0 2.76257 0 5.77946C0 8.79635 2.44567 11.242 5.46256 11.242H9.50019V18.4461C9.50019 21.463 11.9459 23.9087 14.9628 23.9087C17.9796 23.9087 20.4253 21.463 20.4253 18.4461V11.242H23.9878C27.0047 11.242 29.4503 8.79635 29.4503 5.77946C29.4503 2.76257 27.0047 0.316895 23.9878 0.316895H5.46257Z" fill="url(#paint0_linear_331_4492)"/>
<path d="M15.505 5.80412C15.4405 5.85451 15.164 6.07356 15.068 6.15738L13.7262 7.26377L8.25883 4.94362L6.91298 5.80411L10.7295 9.45618L6.37526 11.277L4.15857 11.5145L4.5544 12.5437L7.5633 13.7724C7.57686 13.7825 7.59095 13.7917 7.60533 13.8003C7.60658 13.8012 7.60755 13.8024 7.60811 13.8039C7.6128 13.8199 7.61837 13.8357 7.62481 13.8512L7.60811 13.8039L8.59195 17.0562L9.26233 14.8044L12.6922 11.9209L15.068 16.4792L16.4923 15.5198L15.4375 9.45618L16.836 8.42236C16.942 8.34833 17.2212 8.13327 17.2843 8.08399C17.8617 7.63284 18.2722 7.18456 18.5042 6.75125C18.8984 6.01711 18.6631 5.53112 18.4878 5.30679C17.9309 4.59394 16.8159 4.77991 15.505 5.80412Z" fill="white"/>
<defs>
<linearGradient id="paint0_linear_331_4492" x1="14.7252" y1="0.316895" x2="14.7252" y2="23.9088" gradientUnits="userSpaceOnUse">
<stop stop-color="#819CFE"/>
<stop offset="1" stop-color="#2A58FE"/>
</linearGradient>
</defs>
</svg>
