<svg width="90" height="90" viewBox="0 0 90 90" fill="none" xmlns="http://www.w3.org/2000/svg">
<rect width="90" height="90" rx="21.6" fill="white"/>
<path fill-rule="evenodd" clip-rule="evenodd" d="M23.9395 18.7197C17.0802 18.7197 11.5195 24.2803 11.5195 31.1397C11.5195 37.9991 17.0802 43.5597 23.9395 43.5597H33.1196V59.9398C33.1196 66.7992 38.6803 72.3598 45.5396 72.3598C52.399 72.3598 57.9596 66.7992 57.9596 59.9398V43.5597H66.0595C72.9189 43.5597 78.4795 37.9991 78.4795 31.1397C78.4795 24.2803 72.9189 18.7197 66.0595 18.7197H23.9395Z" fill="url(#paint0_linear_461_9458)"/>
<path d="M46.774 31.1966C46.6273 31.3112 45.9988 31.8092 45.7804 31.9998L42.7296 34.5154L30.2987 29.2401L27.2387 31.1966L35.9161 39.5002L26.0161 43.6401L20.9761 44.1801L21.8761 46.5201L28.7173 49.3138C28.7482 49.3366 28.7802 49.3576 28.8129 49.3772C28.8157 49.3793 28.8179 49.3821 28.8192 49.3853C28.8299 49.4218 28.8425 49.4577 28.8572 49.4928L28.8192 49.3853L31.0561 56.7801L32.5803 51.6603L40.3787 45.104L45.7804 55.4681L49.0187 53.2868L46.6206 39.5002L49.8004 37.1496C50.0414 36.9813 50.6761 36.4923 50.8195 36.3803C52.1324 35.3545 53.0658 34.3353 53.5933 33.3501C54.4895 31.6809 53.9544 30.5759 53.5559 30.0659C52.2896 28.4451 49.7546 28.8679 46.774 31.1966Z" fill="white"/>
<defs>
<linearGradient id="paint0_linear_461_9458" x1="44.9995" y1="18.7197" x2="44.9995" y2="72.3597" gradientUnits="userSpaceOnUse">
<stop stop-color="#819CFE"/>
<stop offset="1" stop-color="#2A58FE"/>
</linearGradient>
</defs>
</svg>
