<svg width="39" height="39" viewBox="0 0 39 39" fill="none" xmlns="http://www.w3.org/2000/svg">
<path fill-rule="evenodd" clip-rule="evenodd" d="M18.5 27C13.8056 27 10 23.1944 10 18.5C10 13.8056 13.8056 10 18.5 10C23.1944 10 27 13.8056 27 18.5C27 20.4869 26.3183 22.3145 25.176 23.7618L29.7071 28.2929C30.0976 28.6834 30.0976 29.3166 29.7071 29.7071C29.3166 30.0976 28.6834 30.0976 28.2929 29.7071L23.7618 25.176C22.3145 26.3183 20.4869 27 18.5 27ZM23.1598 23.0317C23.1368 23.0509 23.1145 23.0713 23.0929 23.0929C23.0713 23.1145 23.0509 23.1368 23.0317 23.1598C21.8609 24.2986 20.2624 25 18.5 25C14.9101 25 12 22.0899 12 18.5C12 14.9101 14.9101 12 18.5 12C22.0899 12 25 14.9101 25 18.5C25 20.2624 24.2986 21.8609 23.1598 23.0317Z" fill="black"/>
<mask id="mask0_984_1689" style="mask-type:luminance" maskUnits="userSpaceOnUse" x="10" y="10" width="20" height="20">
<path fill-rule="evenodd" clip-rule="evenodd" d="M18.5 27C13.8056 27 10 23.1944 10 18.5C10 13.8056 13.8056 10 18.5 10C23.1944 10 27 13.8056 27 18.5C27 20.4869 26.3183 22.3145 25.176 23.7618L29.7071 28.2929C30.0976 28.6834 30.0976 29.3166 29.7071 29.7071C29.3166 30.0976 28.6834 30.0976 28.2929 29.7071L23.7618 25.176C22.3145 26.3183 20.4869 27 18.5 27ZM23.1598 23.0317C23.1368 23.0509 23.1145 23.0713 23.0929 23.0929C23.0713 23.1145 23.0509 23.1368 23.0317 23.1598C21.8609 24.2986 20.2624 25 18.5 25C14.9101 25 12 22.0899 12 18.5C12 14.9101 14.9101 12 18.5 12C22.0899 12 25 14.9101 25 18.5C25 20.2624 24.2986 21.8609 23.1598 23.0317Z" fill="white"/>
</mask>
<g mask="url(#mask0_984_1689)">
</g>
</svg>
