<svg width="40" height="40" viewBox="0 0 40 40" fill="none" xmlns="http://www.w3.org/2000/svg">
<path fill-rule="evenodd" clip-rule="evenodd" d="M20 0C8.95434 0 0 8.95434 0 20C0 31.0456 8.95434 40 20 40C31.0456 40 40 31.0456 40 20C40 8.95434 31.0457 0 20 0ZM20 36C11.1776 36 4.00003 28.8224 4.00003 20C4.00003 11.1775 11.1775 4.00003 20 4.00003C28.8224 4.00003 36 11.1775 36 20C36 28.8224 28.8224 36 20 36ZM27.5314 12.8544L30.3596 15.6826L18 28.0939L10.586 20.6799L13.414 17.8518L18 22.4377L27.5314 12.8544Z" fill="#2A58FE"/>
</svg>
