<svg width="78" height="44" viewBox="0 0 78 44" fill="none" xmlns="http://www.w3.org/2000/svg">
<path d="M47.4361 6.85874L40.2619 1.46651C39.4979 0.888768 38.4683 0.888768 37.7044 1.46651L30.5301 6.85874C29.9986 7.2439 29.6997 7.85374 29.6997 8.46357V17.1297C29.6997 18.5098 30.8622 19.6332 32.2904 19.6332H37.2726V15.1397C37.2726 15.1397 37.3722 14.915 37.5051 14.915H40.4611C40.4611 14.915 40.6936 15.0113 40.6936 15.1397V19.6332H45.8419C47.2036 19.6332 48.2997 18.574 48.2997 17.2581V8.43148C48.2997 7.78954 48.0008 7.21181 47.4694 6.82665L47.4361 6.85874Z" fill="#62626C"/>
<path d="M41.9023 35.6006H35.7012V32.9932H41.9023V35.6006ZM36.9316 34.6729H40.6816V33.9209H36.9316V34.6729ZM42.4492 28.3838H35.1543V27.4463H38.1914V26.7334H39.4414V27.4463H42.4492V28.3838ZM38.8164 28.6084C39.7865 28.6149 40.527 28.724 41.0381 28.9355C41.5492 29.1471 41.8047 29.4613 41.8047 29.8779C41.8047 30.2458 41.6029 30.5355 41.1992 30.7471C40.7956 30.9587 40.2096 31.0872 39.4414 31.1328V31.5674H42.8691V32.5439H34.7637V31.5674H38.1914V31.1328C37.4232 31.0872 36.8356 30.9587 36.4287 30.7471C36.0251 30.5355 35.8249 30.2458 35.8281 29.8779C35.8249 29.4645 36.0788 29.152 36.5898 28.9404C37.1042 28.7256 37.8464 28.6149 38.8164 28.6084ZM38.8164 29.4482C38.2435 29.4482 37.8236 29.4824 37.5566 29.5508C37.2897 29.6159 37.1562 29.7249 37.1562 29.8779C37.1562 30.0277 37.2913 30.1367 37.5615 30.2051C37.8317 30.2734 38.25 30.3076 38.8164 30.3076C39.3861 30.3076 39.8027 30.2734 40.0664 30.2051C40.3333 30.1367 40.4668 30.0277 40.4668 29.8779C40.4668 29.7249 40.335 29.6159 40.0713 29.5508C39.8109 29.4824 39.3926 29.4482 38.8164 29.4482Z" fill="#62626C"/>
</svg>
