<svg width="78" height="44" viewBox="0 0 78 44" fill="none" xmlns="http://www.w3.org/2000/svg">
<path fill-rule="evenodd" clip-rule="evenodd" d="M43.276 5.81345C43.2761 6.37592 43.1654 6.93289 42.9502 7.45256C42.735 7.97224 42.4195 8.44444 42.0218 8.8422C41.6242 9.23997 41.152 9.55551 40.6324 9.77081C40.1128 9.98611 39.5558 10.097 38.9933 10.097C37.8574 10.0971 36.7679 9.64598 35.9646 8.84282C35.1613 8.03966 34.7099 6.95028 34.7098 5.81432C34.7097 5.25186 34.8205 4.69488 35.0356 4.17521C35.2508 3.65554 35.5663 3.18333 35.964 2.78557C36.7671 1.98225 37.8565 1.53088 38.9925 1.53076C40.1284 1.53065 41.2179 1.98179 42.0212 2.78495C42.8245 3.58811 43.2759 4.67749 43.276 5.81345M38.9929 11.4073C32.825 11.4073 30.4258 15.3326 30.4258 17.1587C30.4258 18.9839 35.5332 19.4704 38.9929 19.4704C42.4527 19.4704 47.56 18.9839 47.56 17.1587C47.56 15.3326 45.1608 11.4073 38.9929 11.4073Z" fill="#62626C"/>
<path d="M21.8145 33.8804H17.5469V28.0015H21.8145V33.8804ZM18.7773 32.894H20.5742V28.978H18.7773V32.894ZM24.2754 30.5112H25.584V31.5464H24.2754V36.0483H23.0254V27.1616H24.2754V30.5112ZM33.3477 36.0679H32.0879V27.1616H33.3477V36.0679ZM28.5234 27.7866C28.9694 27.7866 29.3682 27.9168 29.7197 28.1772C30.0745 28.4377 30.3529 28.8071 30.5547 29.2856C30.7565 29.7642 30.8574 30.3192 30.8574 30.9507C30.8574 31.5887 30.7565 32.1486 30.5547 32.6304C30.3529 33.1089 30.0745 33.4784 29.7197 33.7388C29.3682 33.9959 28.9694 34.1245 28.5234 34.1245C28.0677 34.1245 27.6608 33.9959 27.3027 33.7388C26.9447 33.4784 26.6647 33.1089 26.4629 32.6304C26.2643 32.1486 26.1667 31.5887 26.1699 30.9507C26.1667 30.3192 26.2643 29.7642 26.4629 29.2856C26.6647 28.8071 26.9447 28.4377 27.3027 28.1772C27.6608 27.9168 28.0677 27.7866 28.5234 27.7866ZM28.5234 28.9097C28.2923 28.9097 28.0889 28.9894 27.9131 29.1489C27.7406 29.3052 27.6071 29.5363 27.5127 29.8423C27.4183 30.1483 27.3711 30.5177 27.3711 30.9507C27.3711 31.3869 27.4183 31.758 27.5127 32.064C27.6071 32.37 27.7406 32.6011 27.9131 32.7573C28.0889 32.9136 28.2923 32.9917 28.5234 32.9917C28.7513 32.9917 28.9499 32.9136 29.1191 32.7573C29.2884 32.5978 29.4202 32.3651 29.5146 32.0591C29.609 31.7531 29.6562 31.3836 29.6562 30.9507C29.6562 30.521 29.609 30.1532 29.5146 29.8472C29.4202 29.5379 29.2868 29.3052 29.1143 29.1489C28.945 28.9894 28.748 28.9097 28.5234 28.9097ZM42.3223 36.0483H41.1211V27.1616H42.3223V36.0483ZM40.5254 35.6284H39.3438V31.5073H38.4844V30.394H39.3438V27.3374H40.5254V35.6284ZM38.6895 29.1733H38.123V32.8696C38.4355 32.8403 38.6732 32.8127 38.8359 32.7866L38.9238 33.6851C38.3021 33.8185 37.6169 33.908 36.8682 33.9536C36.1227 33.9959 35.3626 34.0171 34.5879 34.0171L34.4512 32.9917H35.1934V29.1733H34.6172V28.1675H38.6895V29.1733ZM36.9902 32.9429V29.1733H36.2969V32.9722L36.9902 32.9429ZM50.6328 36.0679H49.373V27.1616H50.6328V36.0679ZM45.8086 27.7866C46.2546 27.7866 46.6533 27.9168 47.0049 28.1772C47.3597 28.4377 47.638 28.8071 47.8398 29.2856C48.0417 29.7642 48.1426 30.3192 48.1426 30.9507C48.1426 31.5887 48.0417 32.1486 47.8398 32.6304C47.638 33.1089 47.3597 33.4784 47.0049 33.7388C46.6533 33.9959 46.2546 34.1245 45.8086 34.1245C45.3529 34.1245 44.946 33.9959 44.5879 33.7388C44.2298 33.4784 43.9499 33.1089 43.748 32.6304C43.5495 32.1486 43.4518 31.5887 43.4551 30.9507C43.4518 30.3192 43.5495 29.7642 43.748 29.2856C43.9499 28.8071 44.2298 28.4377 44.5879 28.1772C44.946 27.9168 45.3529 27.7866 45.8086 27.7866ZM45.8086 28.9097C45.5775 28.9097 45.374 28.9894 45.1982 29.1489C45.0257 29.3052 44.8923 29.5363 44.7979 29.8423C44.7035 30.1483 44.6562 30.5177 44.6562 30.9507C44.6562 31.3869 44.7035 31.758 44.7979 32.064C44.8923 32.37 45.0257 32.6011 45.1982 32.7573C45.374 32.9136 45.5775 32.9917 45.8086 32.9917C46.0365 32.9917 46.235 32.9136 46.4043 32.7573C46.5736 32.5978 46.7054 32.3651 46.7998 32.0591C46.8942 31.7531 46.9414 31.3836 46.9414 30.9507C46.9414 30.521 46.8942 30.1532 46.7998 29.8472C46.7054 29.5379 46.5719 29.3052 46.3994 29.1489C46.2301 28.9894 46.0332 28.9097 45.8086 28.9097ZM55.2812 29.5835C55.2812 30.075 55.3643 30.5584 55.5303 31.0337C55.6995 31.5057 55.9518 31.9305 56.2871 32.3081C56.6224 32.6857 57.0293 32.9754 57.5078 33.1772L56.834 34.1538C56.3229 33.939 55.8851 33.6232 55.5205 33.2065C55.1559 32.7899 54.8695 32.3032 54.6611 31.7466C54.4561 32.3521 54.168 32.8843 53.7969 33.3433C53.4258 33.799 52.9863 34.144 52.4785 34.3784L51.7656 33.3921C52.2409 33.1805 52.6462 32.8729 52.9814 32.4692C53.32 32.0656 53.5739 31.6131 53.7432 31.1118C53.9157 30.6073 54.002 30.0978 54.002 29.5835V29.0366H52.1172V28.021H57.1367V29.0366H55.2812V29.5835ZM59.2754 36.0483H58.0156V27.1616H59.2754V36.0483Z" fill="#62626C"/>
</svg>
