<svg width="78" height="44" viewBox="0 0 78 44" fill="none" xmlns="http://www.w3.org/2000/svg">
<path d="M39 18.375C43.3492 18.375 46.875 14.8492 46.875 10.5C46.875 6.15076 43.3492 2.625 39 2.625C34.6508 2.625 31.125 6.15076 31.125 10.5C31.125 14.8492 34.6508 18.375 39 18.375Z" stroke="#62626C" stroke-width="1.5" stroke-miterlimit="10" stroke-linecap="round" stroke-linejoin="round"/>
<path d="M31.125 10.5H46.875" stroke="#62626C" stroke-width="1.5" stroke-linecap="round" stroke-linejoin="round"/>
<path d="M39 18.375C40.4497 18.375 41.625 14.8492 41.625 10.5C41.625 6.15076 40.4497 2.625 39 2.625C37.5503 2.625 36.375 6.15076 36.375 10.5C36.375 14.8492 37.5503 18.375 39 18.375Z" stroke="#62626C" stroke-width="1.5" stroke-miterlimit="10" stroke-linecap="round" stroke-linejoin="round"/>
<path d="M25.3145 33.8638H21.0469V27.9849H25.3145V33.8638ZM22.2773 32.8774H24.0742V28.9614H22.2773V32.8774ZM27.7754 30.4946H29.084V31.5298H27.7754V36.0317H26.5254V27.145H27.7754V30.4946ZM36.8477 36.0513H35.5879V27.145H36.8477V36.0513ZM32.0234 27.77C32.4694 27.77 32.8682 27.9002 33.2197 28.1606C33.5745 28.4211 33.8529 28.7905 34.0547 29.269C34.2565 29.7476 34.3574 30.3026 34.3574 30.9341C34.3574 31.5721 34.2565 32.132 34.0547 32.6138C33.8529 33.0923 33.5745 33.4618 33.2197 33.7222C32.8682 33.9793 32.4694 34.1079 32.0234 34.1079C31.5677 34.1079 31.1608 33.9793 30.8027 33.7222C30.4447 33.4618 30.1647 33.0923 29.9629 32.6138C29.7643 32.132 29.6667 31.5721 29.6699 30.9341C29.6667 30.3026 29.7643 29.7476 29.9629 29.269C30.1647 28.7905 30.4447 28.4211 30.8027 28.1606C31.1608 27.9002 31.5677 27.77 32.0234 27.77ZM32.0234 28.8931C31.7923 28.8931 31.5889 28.9728 31.4131 29.1323C31.2406 29.2886 31.1071 29.5197 31.0127 29.8257C30.9183 30.1317 30.8711 30.5011 30.8711 30.9341C30.8711 31.3703 30.9183 31.7414 31.0127 32.0474C31.1071 32.3534 31.2406 32.5845 31.4131 32.7407C31.5889 32.897 31.7923 32.9751 32.0234 32.9751C32.2513 32.9751 32.4499 32.897 32.6191 32.7407C32.7884 32.5812 32.9202 32.3485 33.0146 32.0425C33.109 31.7365 33.1562 31.367 33.1562 30.9341C33.1562 30.5044 33.109 30.1366 33.0146 29.8306C32.9202 29.5213 32.7868 29.2886 32.6143 29.1323C32.445 28.9728 32.248 28.8931 32.0234 28.8931ZM47.5996 32.7212H41.3105V27.7993H47.5312V28.8052H42.5801V29.7427H47.3262V30.7192H42.5801V31.7349H47.5996V32.7212ZM48.4883 34.9966H40.3535V33.981H48.4883V34.9966ZM56.4375 32.106H55.1875V27.1548H56.4375V32.106ZM53.5762 30.1919H50.6855V30.9292C51.5417 30.9227 52.2383 30.9048 52.7754 30.8755C53.3158 30.8462 53.8626 30.7843 54.416 30.6899L54.5723 31.686C53.9375 31.7935 53.3044 31.8651 52.6729 31.9009C52.0446 31.9334 51.2357 31.9497 50.2461 31.9497H49.4648V29.2446H52.3359V28.5415H49.4551V27.5454H53.5762V30.1919ZM51.7305 33.2388H55.1973V32.4771H56.4375V35.9341H50.4902V32.4771H51.7305V33.2388ZM55.1973 34.938V34.2056H51.7305V34.938H55.1973Z" fill="#62626C"/>
</svg>
