<svg width="78" height="44" viewBox="0 0 78 44" fill="none" xmlns="http://www.w3.org/2000/svg">
<path fill-rule="evenodd" clip-rule="evenodd" d="M32.8931 6.73821C31.2802 6.73821 29.9611 8.00464 29.9611 9.55309V11.1709C29.9611 11.5583 29.634 11.8723 29.2306 11.8723C28.8271 11.8723 28.5 11.5583 28.5 11.1709V9.55309C28.5 7.22992 30.4733 5.33545 32.8931 5.33545H44.0756C46.4954 5.33545 48.4687 7.22992 48.4687 9.55309V10.8997C48.4687 11.2871 48.1416 11.6011 47.7381 11.6011H45.7705C45.4207 11.6011 45.1131 11.7313 44.8912 11.9501L44.8781 11.9627C44.6189 12.2056 44.4742 12.5514 44.5106 12.9187L44.5114 12.9269L44.5114 12.9269C44.5629 13.5207 45.1577 14.0325 45.8874 14.0325H47.7381C48.1416 14.0325 48.4687 14.3466 48.4687 14.7339V15.8468C48.4687 18.1699 46.4954 20.0644 44.0756 20.0644H38.7376C38.3341 20.0644 38.007 19.7504 38.007 19.363C38.007 18.9757 38.3341 18.6617 38.7376 18.6617H44.0756C45.6884 18.6617 47.0075 17.3952 47.0075 15.8468V15.4353H45.8874C44.5144 15.4353 43.1817 14.4714 43.0557 13.0475C42.977 12.2412 43.2968 11.488 43.8508 10.9651C44.3492 10.4772 45.0324 10.1984 45.7705 10.1984H47.0075V9.55309C47.0075 8.00464 45.6884 6.73821 44.0756 6.73821H32.8931Z" fill="#62626C"/>
<path fill-rule="evenodd" clip-rule="evenodd" d="M40.5299 2.4831C40.5299 1.72793 39.7438 1.20949 39.016 1.47432L31.2814 4.27998C30.4858 4.56914 29.9611 5.2984 29.9611 6.12094V10.3946C29.9611 10.782 29.634 11.096 29.2306 11.096C28.8271 11.096 28.5 10.782 28.5 10.3946V6.12094C28.5 4.71788 29.3976 3.46446 30.7643 2.968L38.4981 0.16262C40.1861 -0.451611 41.991 0.750714 41.991 2.4831V6.03675C41.991 6.42411 41.6639 6.73813 41.2605 6.73813C40.857 6.73813 40.5299 6.42411 40.5299 6.03675V2.4831Z" fill="#62626C"/>
<path fill-rule="evenodd" clip-rule="evenodd" d="M45.7696 11.601C45.4198 11.601 45.1122 11.7312 44.8903 11.95L44.8772 11.9626C44.6181 12.2055 44.4733 12.5513 44.5097 12.9185L44.5105 12.9268L44.5105 12.9268C44.562 13.5206 45.1568 14.0324 45.8865 14.0324H47.7789C47.9363 14.0227 48.0392 13.9045 48.0392 13.78V11.8535C48.0392 11.729 47.9363 11.6108 47.7789 11.601H45.7696ZM43.8499 10.965C44.3483 10.4771 45.0316 10.1982 45.7696 10.1982H47.7957C47.8044 10.1982 47.813 10.1984 47.8217 10.1987C48.75 10.2305 49.5003 10.9517 49.5003 11.8535V13.78C49.5003 14.6817 48.75 15.4029 47.8217 15.4347C47.813 15.435 47.8044 15.4352 47.7957 15.4352H45.8865C44.5135 15.4352 43.1808 14.4713 43.0548 13.0474C42.9761 12.2411 43.2959 11.4879 43.8499 10.965Z" fill="#62626C"/>
<path fill-rule="evenodd" clip-rule="evenodd" d="M32.8833 10.0109C32.8833 9.62359 33.2104 9.30957 33.6139 9.30957H40.4324C40.8359 9.30957 41.163 9.62359 41.163 10.0109C41.163 10.3983 40.8359 10.7123 40.4324 10.7123H33.6139C33.2104 10.7123 32.8833 10.3983 32.8833 10.0109Z" fill="#62626C"/>
<path fill-rule="evenodd" clip-rule="evenodd" d="M28.9868 14.2194C28.9868 13.8321 29.3139 13.5181 29.7174 13.5181H34.919C35.9458 13.5181 36.7795 14.3183 36.7795 15.3042V16.5013C36.7795 16.8886 36.4524 17.2026 36.0489 17.2026C35.6454 17.2026 35.3183 16.8886 35.3183 16.5013V15.3042C35.3183 15.0931 35.1389 14.9208 34.919 14.9208H29.7174C29.3139 14.9208 28.9868 14.6068 28.9868 14.2194Z" fill="#62626C"/>
<path fill-rule="evenodd" clip-rule="evenodd" d="M31.4223 12.5829C31.7076 12.8568 31.7076 13.3009 31.4223 13.5748L30.7506 14.2197L31.4223 14.8646C31.7076 15.1385 31.7076 15.5826 31.4223 15.8565C31.1371 16.1304 30.6745 16.1304 30.3892 15.8565L29.2008 14.7157C29.0638 14.5841 28.9868 14.4057 28.9868 14.2197C28.9868 14.0337 29.0638 13.8553 29.2008 13.7237L30.3892 12.5829C30.6745 12.309 31.1371 12.309 31.4223 12.5829Z" fill="#62626C"/>
<path fill-rule="evenodd" clip-rule="evenodd" d="M29.7174 16.1743C30.1209 16.1743 30.4479 16.4883 30.4479 16.8757V18.0727C30.4479 18.2839 30.6274 18.4561 30.8473 18.4561H36.0489C36.4524 18.4561 36.7795 18.7702 36.7795 19.1575C36.7795 19.5449 36.4524 19.8589 36.0489 19.8589H30.8473C29.8204 19.8589 28.9868 19.0585 28.9868 18.0727V16.8757C28.9868 16.4883 29.3139 16.1743 29.7174 16.1743Z" fill="#62626C"/>
<path fill-rule="evenodd" clip-rule="evenodd" d="M34.3453 17.5209C34.6306 17.247 35.0932 17.247 35.3785 17.5209L36.5669 18.6618C36.7039 18.7933 36.7809 18.9717 36.7808 19.1578C36.7808 19.3438 36.7039 19.5222 36.5669 19.6537L35.3785 20.7946C35.0932 21.0685 34.6306 21.0685 34.3453 20.7946C34.06 20.5207 34.06 20.0766 34.3453 19.8027L35.0171 19.1577L34.3453 18.5128C34.06 18.2388 34.06 17.7948 34.3453 17.5209Z" fill="#62626C"/>
<path d="M27.873 30.0649H29.0059V31.0903H27.873V34.0786H26.623V27.145H27.873V30.0649ZM28.1758 35.8755H21.916V33.6196H23.166V34.8794H28.1758V35.8755ZM20.666 32.2524C21.4831 32.2524 22.2025 32.2427 22.8242 32.2231V31.7104C22.3359 31.6421 21.9518 31.4924 21.6719 31.2612C21.3952 31.0301 21.2585 30.742 21.2617 30.397C21.2585 30.1073 21.3464 29.8582 21.5254 29.6499C21.7044 29.4383 21.9583 29.2788 22.2871 29.1714C22.6159 29.0607 23 29.007 23.4395 29.0103C23.8757 29.007 24.2565 29.0607 24.582 29.1714C24.9076 29.2788 25.1598 29.4383 25.3389 29.6499C25.5212 29.8582 25.6139 30.1073 25.6172 30.397C25.6139 30.7388 25.474 31.0252 25.1973 31.2563C24.9206 31.4875 24.543 31.6388 24.0645 31.7104V32.1646C24.8587 32.1157 25.5749 32.0441 26.2129 31.9497L26.3008 32.8091C25.7246 32.9198 25.1191 33.0044 24.4844 33.063C23.8496 33.1183 23.2637 33.1541 22.7266 33.1704C22.1895 33.1867 21.5449 33.1997 20.793 33.2095L20.666 32.2524ZM25.9883 28.7563H20.9004V27.8677H22.8242V27.1157H24.0645V27.8677H25.9883V28.7563ZM23.4395 29.8403C23.1172 29.8403 22.8714 29.8875 22.7021 29.9819C22.5329 30.0731 22.4499 30.2114 22.4531 30.397C22.4499 30.563 22.5329 30.6916 22.7021 30.7827C22.8747 30.8706 23.1204 30.9146 23.4395 30.9146C23.752 30.9146 23.9928 30.8706 24.1621 30.7827C24.3314 30.6916 24.4193 30.563 24.4258 30.397C24.416 30.0259 24.0872 29.8403 23.4395 29.8403ZM36.8965 33.6392H35.6562V30.4556H34.2012V29.4497H35.6562V27.1548H36.8965V33.6392ZM37.1113 35.8755H30.998V33.0728H32.248V34.8794H37.1113V35.8755ZM32.7656 28.8931C32.7656 29.2479 32.8389 29.5946 32.9854 29.9331C33.1351 30.2716 33.363 30.5776 33.6689 30.8511C33.9749 31.1245 34.3542 31.3345 34.8066 31.481L34.1914 32.4673C33.7129 32.3143 33.3011 32.0848 32.9561 31.7788C32.6143 31.4728 32.3424 31.1115 32.1406 30.6948C31.9388 31.1571 31.6572 31.5558 31.2959 31.8911C30.9378 32.2264 30.5033 32.4803 29.9922 32.6528L29.3574 31.6372C29.8262 31.4907 30.2201 31.2743 30.5391 30.9878C30.8613 30.7013 31.1006 30.3774 31.2568 30.0161C31.4131 29.6515 31.4928 29.2739 31.4961 28.8833V28.7466H29.709V27.7505H34.5332V28.7466H32.7656V28.8931ZM43.8008 29.5669C43.8008 30.0584 43.8838 30.5418 44.0498 31.0171C44.2191 31.4891 44.4714 31.9139 44.8066 32.2915C45.1419 32.6691 45.5488 32.9588 46.0273 33.1606L45.3535 34.1372C44.8424 33.9224 44.4046 33.6066 44.04 33.1899C43.6755 32.7733 43.389 32.2866 43.1807 31.73C42.9756 32.3354 42.6875 32.8677 42.3164 33.3267C41.9453 33.7824 41.5059 34.1274 40.998 34.3618L40.2852 33.3755C40.7604 33.1639 41.1657 32.8563 41.501 32.4526C41.8395 32.049 42.0934 31.5965 42.2627 31.0952C42.4352 30.5907 42.5215 30.0812 42.5215 29.5669V29.02H40.6367V28.0044H45.6562V29.02H43.8008V29.5669ZM47.7949 36.0317H46.5352V27.145H47.7949V36.0317ZM56.0469 29.0688H57.248V30.0942H56.0469V31.9692H54.7871V27.145H56.0469V29.0688ZM53.5762 27.6235C53.5762 28.7922 53.223 29.7508 52.5166 30.4995C51.8102 31.245 50.7734 31.7707 49.4062 32.0767L48.957 31.0708C49.9596 30.8592 50.7311 30.5369 51.2715 30.104C51.8118 29.6711 52.1211 29.1698 52.1992 28.6001H49.4062V27.6235H53.5762ZM51.4668 33.1802H54.7969V32.311H56.0469V35.9341H50.207V32.311H51.4668V33.1802ZM54.7969 34.9282V34.1372H51.4668V34.9282H54.7969Z" fill="#62626C"/>
</svg>
